<svg width="24" height="24" viewBox="0 0 24 24" fill="none" xmlns="http://www.w3.org/2000/svg">
<path fill-rule="evenodd" clip-rule="evenodd" d="M12.6211 1.34864C12.2734 1.01709 11.7266 1.01709 11.3789 1.34864L1.3789 10.8844C1.20079 11.0543 1.1 11.2896 1.1 11.5357V22C1.1 22.497 1.50294 22.9 2 22.9H9V22H9.00156V16.8984C9.00156 15.2424 10.344 13.9 12 13.9C13.656 13.9 14.9984 15.2424 14.9984 16.8984V22H15V22.9H22C22.4971 22.9 22.9 22.497 22.9 22V11.5357C22.9 11.2896 22.7992 11.0543 22.6211 10.8844L12.6211 1.34864ZM16.7984 21.1H21.1V11.9211L12 3.24357L2.9 11.9211V21.1H7.20156V16.8984C7.20156 14.2483 9.34989 12.1 12 12.1C14.6501 12.1 16.7984 14.2483 16.7984 16.8984V21.1Z" fill="black"/>
</svg>
