<svg width="105" height="30" viewBox="0 0 105 30" fill="none" xmlns="http://www.w3.org/2000/svg">
<path fill-rule="evenodd" clip-rule="evenodd" d="M5.84906 0.103386C3.72375 1.01086 1.38136 3.5683 0.644313 6.78057C-0.289613 10.8488 3.60259 12.5709 3.92568 12.0089C4.2942 11.3437 3.22397 11.1169 3.00185 9.00802C2.7141 6.28043 3.96606 3.23316 5.53607 1.89772C5.82887 1.65022 5.81372 1.99568 5.81372 2.63504C5.81372 3.77971 5.75314 14.0456 5.75314 16.1853C5.75314 19.0831 5.63703 20.0009 5.42501 20.9032C5.20793 21.821 4.86465 22.4397 5.12716 22.6769C5.41996 22.945 6.66688 22.3108 7.38373 21.2848C8.24698 20.0576 8.54988 18.5829 8.60541 16.9845C8.67103 15.051 8.66598 11.9934 8.67103 10.2455C8.67103 8.64193 8.69627 3.95501 8.64579 1.13461C8.6256 0.448846 6.7426 -0.273011 5.84906 0.103386ZM104.022 15.3294C103.714 15.3294 103.573 15.6543 103.457 16.1957C103.053 18.088 102.629 18.5159 102.079 18.5159C101.468 18.5159 100.918 17.5775 100.776 15.7007C100.665 14.226 100.68 11.5087 100.822 8.80693C100.852 8.25007 100.701 7.70352 99.2367 7.16213C98.6056 6.9301 97.6868 6.58464 97.2325 7.70867C95.9452 10.8694 95.4404 13.3804 95.3192 14.4013C95.3142 14.4529 95.2485 14.4632 95.2384 14.3446C95.1627 13.5248 94.9961 12.0398 94.9709 8.92036C94.9658 8.31194 94.8396 7.79117 94.1783 7.36837C93.7492 7.0951 92.4468 6.60526 91.9773 7.18791C91.5734 7.66227 91.0989 8.93583 90.6092 10.4466C90.2104 11.6737 89.9378 12.5039 89.9378 12.5039C89.9378 12.5039 89.9428 9.18848 89.9479 7.93554C89.9479 7.46118 89.6298 7.3065 89.5339 7.27556C89.0998 7.14666 88.2416 6.93526 87.8781 6.93526C87.4288 6.93526 87.3228 7.18791 87.3228 7.55915C87.3228 7.60555 87.2521 11.9212 87.2521 14.9376V15.3655C87.0047 16.7525 86.2021 18.6345 85.3287 18.6345C84.4503 18.6345 84.0414 17.8508 84.0414 14.2518C84.0414 12.1533 84.102 11.2406 84.1323 9.72472C84.1474 8.85334 84.1828 8.17788 84.1828 8.02835C84.1777 7.55915 83.3801 7.32712 83.0116 7.23947C82.638 7.15181 82.3149 7.11572 82.0625 7.13119C81.7041 7.15181 81.4517 7.38899 81.4517 7.71899C81.4517 7.8943 81.4517 8.22944 81.4517 8.22944C80.9923 7.49727 80.2552 6.98682 79.7605 6.83729C78.4379 6.44027 77.0546 6.79088 76.0097 8.27585C75.1817 9.45145 74.682 10.7869 74.4851 12.705C74.3387 14.1074 74.3892 15.5305 74.6416 16.7319C74.3336 18.088 73.7581 18.6448 73.1321 18.6448C72.2235 18.6448 71.5621 17.1341 71.6379 14.5199C71.6883 12.8029 72.0266 11.5964 72.3951 9.84847C72.5516 9.10599 72.4254 8.71412 72.1023 8.34288C71.8095 8.00257 71.1785 7.82727 70.2748 8.03867C69.6337 8.19335 68.7099 8.35835 67.8719 8.48209C67.8719 8.48209 67.9224 8.27585 67.9627 7.91492C68.1798 6.01231 66.1454 6.16699 65.4941 6.77542C65.1054 7.1415 64.8429 7.56946 64.742 8.33772C64.5855 9.55972 65.5648 10.1372 65.5648 10.1372C65.2417 11.6325 64.4542 13.5867 63.6414 14.9994C63.2073 15.7574 62.8691 16.3194 62.44 16.9124C62.44 16.6906 62.44 16.4689 62.4349 16.2472C62.4248 13.102 62.4652 10.627 62.4854 9.73503C62.5005 8.86365 62.5359 8.20882 62.5359 8.05414C62.5308 7.71383 62.3339 7.58493 61.925 7.41993C61.5616 7.27556 61.1375 7.17759 60.6933 7.1415C60.1379 7.0951 59.7997 7.39931 59.8098 7.75508C59.8098 7.82211 59.8098 8.2346 59.8098 8.2346C59.3504 7.50243 58.6134 6.99197 58.1187 6.84245C56.796 6.44542 55.4128 6.79604 54.3678 8.281C53.5399 9.4566 52.9997 11.1117 52.8432 12.6947C52.7019 14.1693 52.7271 15.4222 52.924 16.4792C52.712 17.5363 52.1062 18.6448 51.4247 18.6448C50.5513 18.6448 50.0515 17.8611 50.0515 14.2621C50.0515 12.1636 50.1121 11.2509 50.1424 9.73503C50.1626 8.86365 50.1929 8.18819 50.1929 8.03867C50.1878 7.56946 49.3902 7.33743 49.0217 7.24978C48.633 7.15697 48.2998 7.12603 48.0423 7.14666C47.7041 7.17244 47.4668 7.4818 47.4668 7.70867V8.23976C47.0075 7.50759 46.2654 6.99713 45.7757 6.8476C44.453 6.45058 43.0799 6.81151 42.0299 8.28616C41.3433 9.25036 40.788 10.3177 40.5053 12.6792C40.4195 13.3598 40.3841 13.9992 40.3892 14.5973C40.1166 16.2988 38.9101 18.253 37.9256 18.253C37.3501 18.253 36.7999 17.1135 36.7999 14.6901C36.7999 11.4572 36.9968 6.85791 37.0321 6.41449C37.0321 6.41449 38.279 6.39386 38.5213 6.38871C39.1423 6.38355 39.7077 6.39902 40.5356 6.35261C40.9495 6.33199 41.3484 4.81609 40.9243 4.63047C40.7274 4.54281 39.3543 4.47063 38.8091 4.46031C38.3749 4.43453 37.0977 4.33657 37.0977 4.33657C37.0977 4.33657 37.2138 1.28414 37.2391 0.959303C37.2593 0.691185 36.916 0.551969 36.7242 0.469471C36.2446 0.263226 35.8205 0.165259 35.3157 0.0621369C34.614 -0.0873908 34.301 0.0569809 34.2354 0.660248C34.1395 1.56773 34.094 4.2386 34.094 4.2386C33.5791 4.2386 31.8274 4.13548 31.3175 4.13548C30.8379 4.13548 30.328 6.21855 30.9843 6.24433C31.7415 6.27527 33.0642 6.30105 33.9426 6.32683C33.9426 6.32683 33.9022 11.0034 33.9022 12.4472C33.9022 12.5967 33.9022 12.7462 33.9022 12.8906C33.4226 15.448 31.7213 16.8247 31.7213 16.8247C32.0848 15.1335 31.3427 13.8651 29.9999 12.7926C29.5052 12.3956 28.5309 11.648 27.4354 10.823C27.4354 10.823 28.0664 10.1888 28.6318 8.91521C29.0306 8.01289 29.0458 6.9765 28.0715 6.74964C26.4611 6.37324 25.1283 7.57462 24.7346 8.86365C24.4266 9.85878 24.5932 10.5961 25.194 11.3644C25.2343 11.4211 25.2848 11.4778 25.3353 11.5345C24.9718 12.2512 24.4721 13.2103 24.048 13.9527C22.8718 16.0204 21.9833 17.6548 21.3119 17.6548C20.7767 17.6548 20.7818 15.9946 20.7818 14.4426C20.7818 13.102 20.8777 11.0911 20.9585 9.00286C20.9837 8.31194 20.6455 7.92008 20.075 7.5643C19.7318 7.34775 18.9947 6.91979 18.5656 6.91979C17.9245 6.91979 16.0819 7.00744 14.3402 12.1326C14.1231 12.7771 13.689 13.9579 13.689 13.9579L13.7243 7.79633C13.7243 7.65196 13.6486 7.51274 13.477 7.41478C13.1842 7.24978 12.3966 6.91979 11.7 6.91979C11.3668 6.91979 11.2002 7.07963 11.2002 7.39415L11.1396 17.0361C11.1396 17.7683 11.1598 18.6242 11.2305 18.9954C11.3012 19.3667 11.4173 19.676 11.5586 19.8565C11.7 20.037 11.8666 20.1762 12.1341 20.2329C12.3865 20.2845 13.7698 20.4649 13.8404 19.9287C13.9263 19.2842 13.9313 18.5881 14.6583 15.9946C15.7891 11.9522 17.2632 9.98253 17.9548 9.28129C18.0759 9.15755 18.2173 9.15239 18.2072 9.35348C18.1769 10.2403 18.0759 12.4575 18.0052 14.3343C17.8185 19.3667 18.7171 20.2999 20.0044 20.2999C20.9888 20.2999 22.377 19.3048 23.8663 16.7886C24.7951 15.2212 25.6937 13.6795 26.345 12.5709C26.7943 12.9937 27.3041 13.4526 27.809 13.9373C28.9852 15.0716 29.3689 16.1493 29.1164 17.1702C28.9196 17.9539 28.1825 18.7583 26.87 17.9745C26.4863 17.7477 26.3248 17.5723 25.9411 17.3094C25.7341 17.1702 25.4161 17.1289 25.2293 17.2784C24.7396 17.6548 24.4569 18.1344 24.2954 18.7273C24.1389 19.3048 24.7093 19.609 25.2949 19.8771C25.8048 20.1092 26.8952 20.3154 27.5919 20.3412C30.3028 20.434 32.4735 19.0109 33.988 15.3397C34.2606 18.5108 35.4116 20.3051 37.4107 20.3051C38.7485 20.3051 40.0913 18.5469 40.6769 16.8196C40.8435 17.5259 41.096 18.1395 41.414 18.6551C42.9588 21.1404 45.9473 20.6041 47.4517 18.4953C47.9161 17.8456 47.9868 17.6084 47.9868 17.6084C48.2039 19.5987 49.784 20.2948 50.6876 20.2948C51.6973 20.2948 52.7423 19.8101 53.4743 18.1344C53.5601 18.3148 53.656 18.4901 53.757 18.6551C55.2967 21.1404 58.2903 20.6041 59.7896 18.4953C59.8603 18.3973 59.9209 18.3097 59.9764 18.2272L60.0218 19.5368C60.0218 19.5368 59.1636 20.336 58.6386 20.8259C56.3215 22.9863 54.5596 24.6259 54.4284 26.5337C54.2618 28.9674 56.2054 29.8697 57.6744 29.9883C59.2343 30.1121 60.5721 29.2407 61.3899 28.0135C62.1118 26.9359 62.5864 24.6105 62.551 22.3211C62.5359 21.4034 62.5157 20.2381 62.4955 18.9851C63.3083 18.0261 64.227 16.8092 65.0701 15.3913C65.9889 13.8393 66.9783 11.7614 67.4832 10.1424C67.4832 10.1424 68.3414 10.1475 69.2551 10.0908C69.5479 10.0753 69.6287 10.1321 69.5782 10.3486C69.5126 10.6116 68.4221 14.886 69.4166 17.7322C70.0982 19.6812 71.6328 20.3102 72.5415 20.3102C73.6067 20.3102 74.6264 19.4956 75.1716 18.2787C75.2373 18.4128 75.3079 18.5417 75.3837 18.6654C76.9234 21.1507 79.9069 20.6093 81.4214 18.5056C81.7647 18.0312 81.9565 17.6188 81.9565 17.6188C82.2796 19.6812 83.8597 20.3154 84.7633 20.3154C85.7023 20.3154 86.5958 19.9235 87.3228 18.1808C87.3531 18.949 87.4036 19.5781 87.4742 19.774C87.5197 19.8926 87.7872 20.0473 87.9841 20.1195C88.8474 20.4443 89.7207 20.2896 90.0488 20.2226C90.276 20.1762 90.4477 19.9906 90.4729 19.5214C90.5335 18.2787 90.4981 16.1853 90.8667 14.6334C91.4876 12.0244 92.0681 11.0138 92.3458 10.5136C92.4972 10.2352 92.6739 10.1888 92.679 10.4827C92.6941 11.0859 92.7244 12.8442 92.9617 15.216C93.1384 16.9588 93.3756 17.99 93.5574 18.3148C94.0773 19.2481 94.7185 19.2893 95.2384 19.2893C95.5716 19.2893 96.2632 19.1965 96.2027 18.6036C96.1724 18.3148 96.2279 16.5308 96.8387 13.9579C97.2426 12.2822 97.909 10.7663 98.1513 10.2146C98.2422 10.0083 98.2825 10.1733 98.2825 10.2042C98.2321 11.3592 98.1159 15.1335 98.5804 17.2011C99.2064 20.0009 101.024 20.3102 101.655 20.3102C103.003 20.3102 104.108 19.2687 104.482 16.5205C104.552 15.845 104.421 15.3294 104.022 15.3294ZM47.4668 13.6331C47.3911 15.0871 47.1084 16.3039 46.6642 17.1856C45.8514 18.784 44.2511 19.2893 43.5443 16.9794C43.0345 15.314 43.2061 13.0453 43.4181 11.8181C43.7311 9.998 44.5187 8.70896 45.7504 8.83271C47.0175 8.96161 47.6284 10.6116 47.4668 13.6331ZM59.8098 13.6537C59.7391 15.0252 59.3858 16.4071 59.0071 17.1856C58.2196 18.7944 56.5688 19.2997 55.8873 16.9794C55.4229 15.3965 55.5339 13.3495 55.7611 12.0604C56.059 10.3847 56.7859 8.83271 58.0934 8.83271C59.3656 8.83271 59.9916 10.2506 59.8098 13.6537ZM60.1329 23.0224C60.1178 25.5283 59.729 27.7196 58.8961 28.359C57.7148 29.2613 56.1296 28.5858 56.4578 26.7606C56.7506 25.1415 58.1186 23.4916 60.1329 21.4755C60.1379 21.4704 60.1379 21.9293 60.1329 23.0224ZM81.4365 13.6692C81.3658 15.1747 81.0377 16.3555 80.6339 17.1856C79.8463 18.7944 78.2056 19.2945 77.514 16.9794C77.1354 15.7213 77.1203 13.6124 77.3929 11.8542C77.6705 10.065 78.4429 8.70896 79.7252 8.83271C80.9822 8.95646 81.5728 10.6116 81.4365 13.6692Z" fill="black"/>
</svg>
