<svg width="24" height="24" viewBox="0 0 24 24" fill="none" xmlns="http://www.w3.org/2000/svg">
<path d="M2.88104 7.33141C2.91728 6.75167 3.39803 6.30002 3.9789 6.30002H20.0211C20.602 6.30002 21.0827 6.75167 21.119 7.33141L21.8362 18.8067C21.9477 20.5913 20.5303 22.1 18.7422 22.1H5.2578C3.46966 22.1 2.0523 20.5913 2.16384 18.8067L2.88104 7.33141Z" fill="black" stroke="black" stroke-width="1.8"/>
<path d="M15.3 9.90002C15.3 11.7226 13.8226 13.2 12 13.2C10.1775 13.2 8.70001 11.7226 8.70001 9.90002" stroke="white" stroke-width="1.8" stroke-linecap="round"/>
<path d="M15.3 5.94995V4.29995C15.3 2.47741 13.8226 0.999952 12 0.999952C10.1775 0.999952 8.70001 2.47741 8.70001 4.29995V5.94995" stroke="black" stroke-width="1.8" stroke-linecap="round"/>
</svg>
